<?xml version="1.0" encoding="UTF-8" standalone="no"?>
<!DOCTYPE svg PUBLIC "-//W3C//DTD SVG 1.1//EN"
 "http://www.w3.org/Graphics/SVG/1.1/DTD/svg11.dtd">
<!-- Generated by graphviz version 2.49.3 (0)
 -->
<!-- Title: id Pages: 1 -->
<svg width="228pt" height="116pt"
 viewBox="0.00 0.00 228.35 116.00" xmlns="http://www.w3.org/2000/svg" xmlns:xlink="http://www.w3.org/1999/xlink">
<g id="graph0" class="graph" transform="scale(1 1) rotate(0) translate(4 112)">
<title>id</title>
<polygon fill="white" stroke="transparent" points="-4,4 -4,-112 224.35,-112 224.35,4 -4,4"/>
<!-- nodee -->
<g id="node1" class="node">
<title>nodee</title>
<ellipse fill="none" stroke="black" cx="38.35" cy="-90" rx="38.19" ry="18"/>
<text text-anchor="middle" x="38.35" y="-86.3" font-family="Times,serif" font-size="14.00">nodee</text>
</g>
<!-- a -->
<g id="node2" class="node">
<title>a</title>
<ellipse fill="none" stroke="black" cx="121.35" cy="-90" rx="27" ry="18"/>
<text text-anchor="middle" x="121.35" y="-86.3" font-family="Times,serif" font-size="14.00">a</text>
</g>
<!-- n -->
<g id="node3" class="node">
<title>n</title>
<ellipse fill="none" stroke="black" cx="121.35" cy="-18" rx="27" ry="18"/>
<text text-anchor="middle" x="121.35" y="-14.3" font-family="Times,serif" font-size="14.00">n</text>
</g>
<!-- a&#45;&#45;n -->
<g id="edge1" class="edge">
<title>a&#45;&#45;n</title>
<path fill="none" stroke="black" d="M121.35,-71.7C121.35,-60.85 121.35,-46.92 121.35,-36.1"/>
</g>
<!-- a1 -->
<g id="node4" class="node">
<title>a1</title>
<ellipse fill="none" stroke="black" cx="193.35" cy="-90" rx="27" ry="18"/>
<text text-anchor="middle" x="193.35" y="-86.3" font-family="Times,serif" font-size="14.00">a1</text>
</g>
<!-- a2 -->
<g id="node5" class="node">
<title>a2</title>
<ellipse fill="none" stroke="black" cx="193.35" cy="-18" rx="27" ry="18"/>
<text text-anchor="middle" x="193.35" y="-14.3" font-family="Times,serif" font-size="14.00">a2</text>
</g>
<!-- a1&#45;&#45;a2 -->
<g id="edge2" class="edge">
<title>a1&#45;&#45;a2</title>
<path fill="none" stroke="black" d="M193.35,-71.7C193.35,-60.85 193.35,-46.92 193.35,-36.1"/>
</g>
</g>
</svg>
